<svg xmlns="http://www.w3.org/2000/svg" width="498" height="263" viewBox="0 0 498 263">
    <g fill="none" fill-rule="evenodd">
        <path stroke="#D90051" stroke-width="2" d="M409.678 131.155c-.046-1.485.323-2.622 2.512-3.053 1.689-.33 2.75-1.56 3.823-2.625 1.649-1.639 3.464-3.142 5.524-4.443.876-.553 1.771-1.288 2.99-.487 1.07.703 1.68 1.773 1.05 2.674-1.32 1.879-.746 3.469.469 5.117.352.478.672 1.23.018 1.497-2.684 1.095-2.664 3.12-3.171 5.083-.386 1.499-1.98 1.86-3.774 1.5-1.532-.31-3.046-.73-4.602-.908-3.938-.449-4.862-1.225-4.839-4.355z"/>
        <path stroke="#F9CB00" stroke-width="2" d="M460.05 133.225c2.348-.995 3.591.485 4.882 1.53 2.412 1.956 5.098 2.162 8.118 1.183 2.026-.656 2.687-1.586 1.142-3.11-.594-.586-1.89-1.37-.77-2.032 1.286-.762 1.885.544 2.507 1.212 2.979 3.196 2.011 5.027-3.325 6.394-4.752 1.217-4.7 1.184-1.522 4.44.9.922 3.206 2.016 1.906 3.056-1.508 1.206-2.898-.614-4.051-1.47-1.33-.987-2.458-2.146-3.695-3.213-1.25-1.078-2.46-1.227-2.796.481-.627 3.184-2.738 2.21-4.802 1.192-1.342-.663-2.46-1.594-4.239-1.507-1.02.049-1.376-.47-1.096-1.276.273-.787.49-1.588.73-2.384l7.01-4.496z"/>
        <path stroke="#FA8300" stroke-width="2" d="M307.052 154.495c-.038 2.244-.662 4.321-2.39 6.154-1.607 1.704-2.48 3.611-2.685 5.794-.217 2.302-1.387 4.29-4.495 4.927-2.254.463-3.573-.267-3.356-2.246.088-.804.26-1.672.726-2.368 1.54-2.304 2.569-4.5 1.104-7.205-.818-1.51.46-2.793 2.486-3.328 2.632-.692 5.15-1.467 6.08-3.907.191-.502.745-1 1.555-.782.72.195.93.76.967 1.325.036.544.008 1.09.008 1.636z"/>
        <path stroke="#D90051" stroke-width="2" d="M387.64 122.194c2.267.633 3.982 1.662 5.08 3.214 1.154 1.631 2.983 2.657 4.599 3.915 2.686 2.092 4.417 4.876 7.032 7.092.904.765.353 1.911-.793 2.621-1.2.745-2.381.984-3.632.032-2.087-1.588-3.412-3.577-4.902-5.521-2.363-3.083-4.533-6.303-7.708-8.953-.605-.507-1.183-1.195-.72-1.965.145-.244.735-.315 1.044-.435zM430.568 103.879c-.11.323-.244.764-.41 1.197-.665 1.741-.19 2.846 2.362 2.977 1.165.06 2.512.37 2.08 1.603-.465 1.325-1.926.652-2.874.44-3.75-.836-5.93-3.783-5.03-6.767.27-.897.389-2.271 2.14-1.98 1.371.228 1.716 1.33 1.732 2.53zM416.227 144.79c-3.507-.708-7.117-2.183-11.163-2.091-.526.012-1.168-.226-1.134-.81.04-.668.7-1.025 1.383-.926 3.975.58 8.163.106 11.96 1.52.817.303 1.766.81 1.573 1.605-.243.998-1.477.482-2.619.703zM439.91 118.921c-.09.963-.199 1.908-1.498 2.276-1.1.31-1.983-.006-2.608-.808a6.013 6.013 0 0 0-.82-.852c-.715-.615-3.323-.153-2.21-1.617 1.102-1.45 3.735-.697 5.651-1.035 1.46-.258 1.128 1.275 1.485 2.036zM281.114 55.253c.015.004.027.002.043.006a.168.168 0 0 1 .004-.017l-.047.01z"/>
        <path stroke="#D90051" stroke-width="2" d="M281.156 55.26c-1.095 3.002-.315 5.2 3.92 5.944.323.057.639.21.907.37.915.548 2 1.105 1.617 2.186-.366 1.033-1.36 1.666-2.712 1.845-1.164.155-2.328.022-3.295-.483-6.02-3.14-11.095-.926-16.113 1.762-.665.356-.783.777-.676 1.39.479 2.724 3.017 4.254 6.401 3.7.73-.12 1.36-.2 1.908.18 1.562 1.081 3.086.828 4.702.072 1.946-.912 2.764-.13 2.809 1.4.068 2.339-.72 4.535-2.133 6.558-.545.78-.895 1.442-.228 2.265 2.394 2.958 3.715 6.35 6.478 9.22 3.276 3.403 4.561 7.912 8.816 10.883.495.346.49 1.178.666 1.794.38 1.335.718 2.68 1.095 4.016.528 1.877 1.666 2.586 4.137 1.74 4.291-1.468 8.032-3.64 11.98-5.506 4.295-2.03 7.09-4.63 9.8-7.659 1.166-1.303 1.348-2.296-.562-3.118-2.434-1.048-4.56-2.284-4.587-4.848-.507.186-.747.221-.895.336-1.215.936-2.023 2.26-3.81 2.646-2.372.51-2.776-1.02-3.534-2.21-.086-.135-.632-.201-.885-.125-1.639.49-2.057-.544-2.4-1.354-.524-1.237-1.326-2.324-2.235-3.375-.76-.877-.93-1.674.323-2.34 1.152-.612 1.94-.026 2.625.615.439.41.76.905 1.104 1.377 1.817 2.48 4.142 4.126 8.051 3.227 1.23-.284 2.324.017 3.078.772 1.878 1.884 4.364 2.137 7.084 1.884 2.478-.23 4.972.082 7.431.121 2.892.048 4.377 2.994 7.398 3.464.04.007.082.525-.064.708-.818 1.025-.366 1.733.822 2.245 1.053.453 1.965.245 2.725-.484.422-.405.813-.971 1.633-.554.649.33.87.911.642 1.449-1.201 2.833.55 5.183 1.878 7.584 2.032 3.669 4.545 7.18 5.501 11.192.177.74.515 1.462 1.642 1.52 1.065.056 1.602-.56 2.064-1.22 1.874-2.68 3.225-5.49 2.607-8.624-.266-1.352.33-2.034 1.513-2.992 2.952-2.39 5.591-5.043 8.211-7.683 1.232-1.242 6.097-3.032 6.796-2.117 2.39 3.13 8.026 4.567 7.445 9.268-.156 1.267 1.038 1.764 2.172.86 2.69-2.149 2.932-.54 3.358 1.211.215.88.476 1.86 1.124 2.544 1.543 1.624 1.82 3.292.978 5.155-1.29 2.855.332 4.387 3.748 5.329.232-1.22-.185-2.186-.874-2.997-1.407-1.662-1.123-3.504-1.074-5.314.047-1.734 1.129-2.1 2.858-1.109 2.628 1.507 4.719 3.609 6.762 5.462 1.975 1.79 1.99 1.02 2.972-.118.38-.44.875-.842 1.404-1.17 3.69-2.297 4.119-3.675 1.603-6.867-1.7-2.157-3.745-4.138-5.624-6.204-1.21-1.33-1.566-2.754.132-3.922 1.44-.99 3.258-1.548 4.867-.223.903.743 1.557.74 2.156-.028 1.51-1.934 3.933-1.892 6.318-2.084 4.43-.357 10.46-8.102 8.508-11.294-1.692-2.768-3.708-5.552-6.32-7.764-1.832-1.552-1.323-2.116.15-3.15.616-.433 1.957-.63 1.375-1.585-.468-.773-1.593-.586-2.46-.46-1.658.24-3.186.095-4.517-.767-.931-.604-1.386-1.484-.14-1.991 1.419-.576 2.606-3.085 3.771-1.87 1.61 1.682 2.835 1.85 4.996 1.387 1.085-.232 1.987.296 2.072 1.346.055.684.296 1.343 1.2 1.497 2.659.453 3.711 1.836 3.902 3.903.148 1.598 1.43 1.598 2.953 1.158 1.504-.435 2.392-1.04 1.536-2.436-.715-1.165-1.558-2.247-2.852-3.038-1.627-.992-5.563-1.334-1.537-3.82.197-.122-.005-.689-.057-1.044-.261-1.766.437-2.872 2.91-2.767.97.04 1.717-.2 2.36-.846 2.354-2.37 3.026-8.335.799-10.662-2.92-3.05-5.457-6.718-11.6-5.848-1.412.2-3.01-.248-2.996-1.928.03-3.672 3.929-6.513 8.515-6.206 2.603.174 5.208.334 7.815.466 1.315.067 1.957-.295 2.142-1.537.38-2.561 1.429-2.908 4.175-1.476 1.583.824 2.684 1.052 3.224-.733.176-.581.582-1.038 1.365-1.026.964.014 1.237.666 1.556 1.267.578 1.088-.117 1.935-.722 2.822-.915 1.341-1.464 2.877-.514 4.208 2.154 3.02 4.833 5.766 8.146 8.038 1.185.813 2.527.785 2.47-.827-.121-3.384.844-7.167-4.606-8.828-1.203-.366-1.992-1.314-1.6-2.459.374-1.097 1.569-1.517 2.848-1.698 1.136-.16 2.27-.087 3.342.306.796.292 1.657.367 2.149-.268 1.359-1.753 3.44-2.467 6.173-2.584-.953-1.317-2.355-1.232-3.403-1.648-1.238-.492-3.534-.476-3.084-1.96.44-1.447 2.601-1.155 4.152-.99 1.103.117 2.175.468 3.237.767.749.212 1.431.588 2.19.756.95.21 2.174.59 2.733-.347.54-.906-.523-1.49-1.286-2.02-1.155-.8-2.49-1.275-4.048-1.25-4.886.08-9.416-1.096-13.844-2.583-3.057-1.026-6.199-1.796-9.46-2.232-3.761-.502-4.146-.233-4.328 2.515-8.55.008-16.56-3.632-25.368-2.22-1.62.26-3.085-.412-4.495-1.056-3.14-1.433-6.572-1.993-10.148-2.03-1.76-.017-3.536.001-3.704 1.97-.073.876-.68 1.03-1.644.772-1.124-.303-2.307-.29-3.307.213-2.085 1.047-3.699.548-5.55-.549-2.446-1.447-5.374-3.71-8.143-2.862-3.855 1.182-7.406.399-10.977.245-3.703-.16-7.485-.272-11.36-.477.58-1.626 3.576-1.239 2.96-2.635-.709-1.609-3.059-1.304-4.816-1.236-2.403.094-4.727.327-6.72-1.172-.799-.601-2.159-.705-2.816-.01-2.383 2.519-5.688 1.655-8.75 1.782-2.29.095-5.013-.42-5.502 2.425-.11.64-.935.863-1.613.576-2.093-.883-3.409.03-4.734 1.15-1.125.95-2.387 1.633-4.203 1.42-1.956-.23-1.842.68-1.07 1.623.421.516 1.166.854 1.732 1.3.868.684 2.263 1.33 1.457 2.473-.718 1.016-1.757 2.029-3.699 1.863 1.097-2.6-1.226-7.014-4.175-8.176-1.25-.493-2.785-.866-3.708.228-.894 1.058.303 1.86 1.248 2.526.596.419 1.316.722 1.929 1.127.473.312 1.335.619.598 1.252-.482.413-.974.046-1.483-.194-4.815-2.27-9.513-1.965-14.086.491"/>
        <path stroke="#D90051" stroke-width="2" d="M296.96 24.139c.091 4.843-3.428 8.783-5.278 13.125-1.09 2.556-1.495 5.113-1.923 7.696-.705 4.257-2.42 7.915-7.573 9.929-.24.321-.558.492-1.03.37"/>
        <path stroke="#DDD" stroke-width="2" d="M468.157 232.919c-3.089-.072-5.549-2.172-8.374-1.914-4.926.45-8.599-.91-11.937-3.579-1.094-.875-2.661-1.877-4.233-.903-2.111 1.308-3.917.901-5.93.019-1.544-.678-3.297-.63-5.004-.638-5.81-.033-11.563.527-17.316 1.077-2.966.284-5.857.474-8.576-.93-1.634-.844-3.533-.781-5.25-.135-3.29 1.239-6.075.848-8.682-1.208-1.836-1.448-3.884-1.72-6.037-.175-1.293.929-3.009 1.242-4.698 1.506-5.718.892-11.514 1.01-17.308 1.173-7.265.203-14.217 1.261-20.396 4.628-2.163 1.178-4.6 1.126-7.326.61.387-.431.515-.68.747-.813.88-.504 2.57-.531 2.43-1.627-.166-1.322-1.937-1.342-3.193-1.654-.752-.186-1.569-.205-2.356-.298-4.086-.484-8.414.122-12.11-2.108-1.133-.684-2.891-.409-4.33-.054-3.037.746-6.084 1.484-9.069 2.355-4.61 1.345-9.242 2.857-14.189 2.695-20.586-.674-41.005 1.636-61.525 2.078-1.342.03-2.996-.099-3.692 1.019-1.283 2.06-3.565 1.961-5.82 2.124-2.002.145-4.43-.352-5.813 1.01-1.922 1.892-4.483 2.37-7.107 2.93-1.976.422-3.973.776-5.942 1.217-1.144.257-2.971.267-2.8 1.486.13.93 1.87.725 2.974.813 1.496.119 3.142-.181 4.35.905-.672 1.025-1.857.9-2.777.966-16.551 1.181-33.11 1.983-49.676.16a17.505 17.505 0 0 1-2.97-.607c-.712-.209-1.694-.477-1.523-1.252.204-.925 1.23-.544 1.964-.5.792.046 1.578.21 2.368.218 1.59.015 4.104.095 4.237-1.03.252-2.141 2.135-2.22 3.677-2.94 3.447-1.61 3.74-3.527.77-5.649-1.607-1.147-3.431-2.105-5.191-3.11-4.895-2.795-4.918-3.218-.23-6.092.27-.166.561-.321.79-.52.622-.54 1.345-1.113.67-1.905-.555-.65-1.38-.422-2.174-.267-3.28.644-6.464 3.388-6.837 6.234-.193 1.473-.157 2.414-2.653 1.762-2.186-.57-3.01.422-1.996 2.102.58.964 1.37 1.845 2.397 3.203-12.165.571-23.748 2.227-35.143-.997a3.218 3.218 0 0 0-.672-.089c-.58-.035-1.18-.017-1.483.451-.344.535-.252 1.161.263 1.528.57.407 1.344.644 2.059.9.738.264 1.688.503 1.484 1.26-.188.698-1.184.826-1.974.77-3.054-.218-6.116-.406-9.146-.768-11.43-1.364-22.87-1.567-34.31-.189-2.3.277-5.054.421-6.094 2.469-.857 1.687-2.25 1.65-3.83 1.345-2.424-.468-4.785-1.147-7.204-1.637-.773-.157-1.948-.588-2.316.401-.256.685.66 1.12 1.33 1.43 3.507 1.618 7.324 2.909 11.32 2.57 4.295-.364 7.326 1.113 10.32 3.084.771.507 2.01.995 1.706 1.868-.373 1.072-1.77.533-2.663.476-4.761-.303-9.517-.727-14.3-.416-3.283.214-6.592.384-9.625 1.583-1.185.469-2.086 1.139-2.01 2.32.074 1.176 1.252 1.485 2.34 1.682 2.987.54 5.977 1.133 9.007 1.437 18.407 1.848 36.927 2.501 55.437 3.129 30.108 1.02 60.24 1.436 90.368 1.663 35.711.269 71.424.201 107.138-.243 28.2-.35 56.394-.652 84.561-1.81 12.03-.493 24.08-1.043 35.943-2.868 2.364-.364 6.007-.267 6.214-2.865.2-2.512-3.21-2.914-5.598-3.706-2.238-.742-5.554-.963-5.484-3.437.078-2.764 3.574-2.96 6.108-3.538 3.93-.897 8.15-1.156 11.787-2.667 5.736-2.381 11.848-3.656 18.057-4.794a20.436 20.436 0 0 0 3.827-1.104c.947-.375 1.3-1.595.249-1.62z"/>
        <path stroke="#FA8300" stroke-width="2" d="M305.779 112.623c-.757.188-1.477.475-2.223.697-5.47 1.625-7.321.709-10.387-3.4-4.057-5.438-8.343-10.75-11.824-16.464-2.16-3.545-6.1-6.4-5.914-10.829.055-1.325-1.438-1.682-2.984-1.551-3.644.309-6.942-.618-10.176-1.83a38.605 38.605 0 0 0-4.44-1.39c-1.203-.29-2.173-.009-2.664 1.108-1.527 3.473-3.062 3.844-6.865 1.657-1.554-.894-2.713-2.348-4.74-2.559-3.671-.38-4.592-2.114-4.252-4.8.297-2.338-1.322-3.052-3.813-2.164-2.91 1.037-5.874 1.312-8.978 1.052-2.393-.2-4.457.534-6.432 1.491-1.972.957-3.923 1.406-6.018.17-1.399-.826-2.143-.294-3.297.693-2.712 2.317-5.598 4.38-5.85 7.905-.05.71-1.326 1.433-2.172 2.025-3.563 2.496-6.25 5.534-8.677 8.757-1.278 1.696-1.639 3.357-.46 5.184.806 1.249 1.475 2.784.543 3.948-1.971 2.466-1.45 5.298-2.371 7.894-.449 1.264-.09 1.989 1.7 2.38 2.954.649 4.622 2.156 5.23 4.798.96 4.185 4.98 6.055 10.3 5.436 5.032-.586 10.087-.912 14.851-2.617 2.678-.959 5.148-.523 6.35 2.056.548 1.172 1.583 1.777 3.18 1.284 2.86-.168 4.024.615 3.985 2.944-.023 1.354-.4 2.713-.72 4.054-.313 1.312-.502 2.692.816 3.612 4.577 3.194 5.494 7.572 6.455 12.01.424 1.96.501 3.717-.742 5.55-2.305 3.398-2.575 6.892-.454 10.512 3.869 6.6 4.681 13.971 7.879 20.757.794 1.686 1.808 3.368 4.023 3.216 3.88-.267 7.924.093 11.599-1.524 5.48-2.41 8.651-6.101 9.795-10.953.317-1.346.694-2.471 2.542-2.894 3.259-.745 3.24-2.436 1.914-4.463-.658-1.005-1.128-2.004-.332-3.11 1.487-2.07 3.073-4.037 5.789-5.267 5.539-2.507 7.038-7.21 3.77-11.553-2.949-3.914-2.783-7.223.66-10.883 2.754-2.928 6.041-5.453 9.416-7.917 4.699-3.432 7.03-8.042 9.176-12.661 1.027-2.209-.325-3.07-3.188-2.36z"/>
        <path stroke="#00C8CC" stroke-width="2" d="M103.614 13.729c2.193.583 3.345 3.001 6.11 2.365 4.35-1.001 7.526.573 10.281 2.94 1.653 1.42 3.897 2.086 5.83 3.052 5.615 2.804 6.549 3.858 5.797 9.17-.324 2.293 1.212 3.547 3.71 4.317 2.455.756 4.71.577 5.796-1.451 1.504-2.808 3.863-4.632 7.444-5.558.648-.167 1.762-.579.912-1.37-2.022-1.884.463-1.272 1.263-1.509.898-.266 2.944.194 1.957-1.313-1.502-2.297.492-2.273 2.184-2.772 3.822-1.13 5.307-3.304 4.223-6.4-.646-1.847.376-2.501 2.316-2.905 1.452-.302 3.139-.08 4.408-1.011-.677-1.071-1.81-1.085-2.725-.954-6.593.94-13.125-.41-19.684-.262-6.734.152-13.346-.595-19.99-1.298-4.04-.427-8.28-.787-12.086.65-2.454.925-4.184 2.97-7.243 3.137-.645.036-1.284.963-.503 1.172zM68.194 16.18c7.999.355 16.058-1.13 23.64.52 2.678-.038 4.635.021 5.179-2.637.256-1.253 1.264-3.38 4.09-3.41.665-.006 1.287-.465 1.259-1.107-.03-.669-.73-.954-1.408-.969-5.802-.125-11.795-1.156-16.847 2.356-.814.567-1.969 1.149-3.09.873-2.273-.558-3.627-.202-4.39 1.765-.315.81-1.774 1.68-2.293.08-.75-2.317-2.006-1.75-3.524-.691-.74.516-1.465.707-2.466.63-1.818-.138-4.461-.115-4.483 1.436-.02 1.403 2.75 1.084 4.333 1.154zM101.515 117.632c.09-.452.431-.692.922-.402 1.84 1.087 2.45-.176 2.292-1.07-.23-1.298-1.813-1.06-3.054-.915-4.958.58-6.4-.445-6.203-4.466.045-.913.232-1.82.297-2.732.187-2.621-1.352-3.952-4.587-3.959-.908-.002-1.815.101-2.724.135-1.466.055-2.148-.221-1.421-1.587.936-1.758 1.59-3.611 2.404-5.412.546-1.208 1.025-2.49-1.215-2.72-1.832-.188-4.234-.516-4.449 1.774-.265 2.836-2.908 3.06-5.321 3.277-2.706.243-4.18-1.219-4.727-3.2-.84-3.054-.904-6.07-.242-9.23 1.014-4.84 3.963-6.595 9.836-5.14.815.202 2.27.594 2.249-.32-.079-3.49 2.475-1.422 3.958-1.274.95.096 1.797.95 2.867.522 1.972-.789 2.356.39 2.85 1.413.78 1.616 1.445 3.27 2.283 4.868.338.645.95 1.453 2.025 1.1 1.081-.355.692-1.283.505-1.945-.276-.975-.755-1.917-1.187-2.86-2.185-4.776-1.798-6.228 3.342-8.999 2.542-1.37 3.314-2.957 3.04-5.3-.44-3.77 1.914-6.094 6.406-6.731.407-.058.928-.074.996-.561-2.413-2.68-1.75-3.511 4.29-5.362.657.605-.704 1.744.753 2.09 1.113.265 1.54-.61 2.165-1.083.863-.654 1.925-.93 3.002-1.234.8-.227 2.034-.4 1.52-1.401-.412-.8-1.363-.647-2.353-.436-2.823.6-4.582-.51-4.203-2.848.234-1.45-.51-1.535-1.824-1.539-.856-.003-1.768.497-2.726-.244 1.579-1.178 3.487-1.189 5.405-1.218 1.348-.02 2.702.131 4.006-.427.806-.345 1.28-1.721 2.401-.952.912.625-.218 1.506-.476 2.26-.414 1.215-1.438 2.843.905 3.11 2.34.268 4.654 1.608 7.696.326-3.345-2.536-6.306-5.183-7.243-8.814-.06-.23-.392-.472-.672-.603-4.585-2.119-9.299-4.072-11.688-8.262-.445-.777-1.873-1.323-2.473.193-.273.69-.19 1.569-1.476 1.515-1.079-.047-1.378-.846-1.821-1.475-1.898-2.691-5.237-3.515-8.624-4.222-.742-.155-1.657-.026-2.163.557-.511.587.142 1.03.545 1.432 1.835 1.832-.114 4.423 1.935 6.23.137.12-.155.753-.45.961-1.846 1.298-1.91 2.762-.922 4.447.368.628.164 1.3-.822 1.531-.902.211-1.595-.155-1.944-.785-.414-.747-.656-1.553-.991-2.328-.367-.846-.487-2.115-1.804-2.112-2.879.008-5.064-1.705-7.797-1.818-3.318-.135-4.223-2.376-4.892-4.122-.64-1.667.804-3.325 3.162-4.029.518-.155 1.106-.306 1.476-.605 1.175-.953 2.079-3.48 3.728-.261.084.165.944.275 1.24.135 1.474-.7 3.247-.307 5.673-.904-5.625-1.406-1.688-4.626-3.541-6.72 3.338-.355 6.47-.277 8.09 1.833 1.355 1.764-1.827 2.432-3.525 4.36 4.978-1.51 6.57 2.093 9.926 2.825 1.688.37 2.571.932 3.777-.628 1.538-1.995-.816-2.029-1.74-2.812-.28-.117-.56-.233-.84-.347-.422-.227-1.12-.495-.68-.918.387-.373.905.068 1.263.369.266.122.532.245.799.366 1.019.355 1.79.129 2.221-.685.248-.468.094-1.008-.513-1.153-4.593-1.09-7.138-4.702-11.679-5.96a56.902 56.902 0 0 0-10.876-1.926c-1.215-.095-2.298-.366-2.814.789-.548 1.226.342 1.766 1.616 2.291 2.414.997 2.571 1.932.65 4.189-.506-1.43-1.665-2.086-3.005-2.8-1.06-.565-3.958-1.694-1.23-3.71.926-.685-.492-.993-1.193-.967-1.115.043-2.179.432-3.354.12-.98-.26-2.199-.429-2.62.598-.41 1.004.32 1.877 1.5 2.16 2.192.528 1.107 1.465.5 2.234-1.32 1.672-3.288 1.466-5.517 1.215.717-1.195 3.782-.912 2.472-2.514-1.08-1.32-.852-3.914-4.674-3.368-2.295.328-4.87-.534-7.301-.928-1.763-.287-3.48-.397-4.63.934-.823.954-1.532 2.172.967 2.184 1.274.006 2.046.209 1.834 1.33-.25 1.33-1.546.846-2.418.707-2.812-.447-5.606-.882-8.396.007-2.782.885-5.456.59-8.327.052-4.157-.779-8.607-2.866-12.557-1.543-4.37 1.465-10.311.196-13.192 4.503-.213.318-1.26.286-1.926.394-1.022.164-2.038.407-2.727 1.043-1.085 1.001-1.45 1.957.732 2.352.684.124 1.507-.258 2.176.32-1.211 1.39-3.084 1.118-4.653 1.483-2.012.47-4.247.521-4.566 2.953-.323 2.467 2.19 2.33 3.749 3.143-1.622 1.602-4.83 1.369-6.445 3.643 4.401-.17 7.74-2.426 11.79-2.242.912.042.637-.982.942-1.417.786-1.122.67-4.124 3.978-1.81.633.443 1.515.283 1.858-.113 2.713-3.142 5.91-.457 8.855-.506a1.905 1.905 0 0 1 1.874 1.411c.965 3.694 4.292 6.568 5.398 10.235.326 1.081-.292 2.34 1.096 3.3 2.326 1.603 2.282 3.717 1.18 5.79-1.303 2.447-1.899 4.977-2.452 7.595-.772 3.655 2.18 6.334 2.98 9.54 5.381 1.715 3.595 7.157 7.66 9.576.258.155.408.837.228.996-1.65 1.462-.16 2.027 1.09 2.696.921.492 1.344 1.207 1.366 2.094.055 2.176 1.855 3.282 3.861 4.385.77-1.063.006-1.643-.35-2.405-1.553-3.325-3.683-6.424-5.472-9.652-.329-.594-.762-1.618.287-1.937.992-.301 1.464.485 1.764 1.269.904 2.364 2.794 4.35 4.051 6.575 2.027 3.584 6.592 6.272 5.727 10.93-.188 1.016 1.026 2.436 2.39 2.841 3.515 1.046 6.093 3.428 9.772 4.21 1.241.264 2.43.637 3.61.076 1.714-.814 2.706-.1 3.732.91 1.833 1.806 3.851 3.388 7.099 3.26 1.333-.052 1.887.764 2.54 1.563 1.185 1.454 1.598 4.179 2.707 4.432 2.759.63 3.661 2.64 5.739 3.686 2.008 1.01 3.126 2.153 3.687-.675zM176.358 138.929c-.988-.244-2.218-.331-2.665-1.086-2.02-3.413-5.216-2.864-8.664-1.863-1.322.383-2.822.89-2.297-1.24.347-1.409-.94-1.997-2.467-2.002-1.449-.004-2.9.218-4.416.346-.561-.702.742-1.942-.816-2.313-1.135-.269-1.758.656-2.615 1.047-.777.355-1.352 1.379-2.666.57.263-.41.464-.836.778-1.199 3.97-4.583 1.16-9.39-5.914-9.985-2.674-.225-4.66-1.236-6.365-2.839-2.103-1.977-4.515-3.679-7.898-3.993-2.85-.265-5.492-.756-7.957-2.1-2.133-1.16-3.88-.632-4.535 1.574-.213.715-.095 1.74-1.573 1.764-1.185-1.18.588-2.65-.503-3.831-4.968.886-6.126 4.969-9.607 7.016-.395.232-.557 1.091-.372 1.536 1.777 4.26-.658 7.338-3.968 10.4-2.935 2.716-1.153 6.212-1.584 9.348-.04.29.356.686.673.927 3.58 2.732 5.403 6.323 7.153 9.875 1.584 3.218 3.858 5.608 7.905 7.069 5.025 1.814 6.741 5.195 5.765 9.506-.432 1.903-.546 3.84-.233 5.743.998 6.082 1.73 12.157 1.25 18.315-.203 2.629.68 5.116 3.877 6.575 1.107.505 1.56 1.23 1.483 2.265-.125 1.703 1.179 3.252-.28 5.227-.638.863 3.022 2.437 3.79 4.352.69 1.72 1.563 3.457 3.106 4.85 1.012.913 2.212 1.688 3.86 1.005.98-.407 2.708-8.93 1.967-9.57-.378-.325-.928-.516-1.385-.785-.997-.585-1.302-1.638-.578-2.156 2.231-1.595 1.18-3.001.19-4.633-.819-1.353-1.466-3.003 1.886-2.022 1.565.458 2.07-.394 1.646-1.232-1.2-2.375.472-2.274 2.538-2.284 3.56-.018 4.671-1.58 2.967-4.09-.642-.946-1.56-1.77-2.532-2.849 1.55-.422 2.45.282 3.46.622 1.118.377 2.204.587 3.084-.314 3.754-3.845 6.407-8.158 7.68-12.917.783-2.925 3.951-5.537 7.762-5.365 2.28.105 3.329-.669 4.09-2.189 1.728-3.448 2.35-7.076 2.48-10.731.098-2.797 1.202-5.168 3.293-7.323.839-.864 1.764-1.698 2.423-2.647 1.996-2.873.698-5.406-3.216-6.374z"/>
        <path stroke="#00C8CC" stroke-width="2" d="M96.182 94.558c.869.848 1.48.773 1.99.688 3.614-.607 6.551-.235 8.777 2.614 1.305 1.668 3.78 1.383 6.287-.154-4.908-3.334-9.94-6.339-17.054-3.148zM114.046 101.162c2.637.434 5.075.33 7.51.223.702-.03 1.441-.176 1.646-.753.276-.777-.534-1.102-1.238-1.388-3.15-1.28-5.761-.79-7.918 1.918z"/>
        <path stroke="#A381C0" stroke-width="2" d="M281.162 55.242l-.043.003-.005.008.048-.01z"/>
        <path stroke="#A381C0" stroke-width="2" d="M286.977 24.572c-.955.592-2.1.528-3.035-.348-1.049-.982-1.67-.541-2.097.5-1.281 3.126-5.702 5.266-9.652 4.67-1.825-.277-3.684-1.273-3.51-2.565.23-1.71 2.348-.473 3.63-.6.214-.021.444.067.67.091 1.121.116 2.55.438 3.05-.578.604-1.233-.97-1.643-1.959-2.21-2.193-1.257-5.15-.886-7.294-2.188-3.047-1.85-6.445-3-10.137-3.744-3.136-.632-10.072 1.664-11.414 3.974a1.275 1.275 0 0 0-.159.52c-.313 3.606-2.265 6.45-6.102 8.378-2.546 1.28-3.61 4.302-2.245 6.48.725 1.156 1.825 1.5 3.001.646 2.196-1.596 2.627-.224 3.025 1.082.239.787.2 1.63.26 2.45.056.766.236 1.487 1.249 1.784 1.053.31 1.773-.246 2.335-.81 1.896-1.901 3.097-4.523 2.681-6.499-.569-2.715-.53-4.757 1.82-6.745.974-.824.533-3.397 2.465-2.552 1.98.867-.64 2.202-1.267 3.282-1.45 2.49-.536 4.585 2.713 5.702.087-.057.16-.136.26-.167 1.187-.374 1.994-1.54 3.534-1.135.203.053.463.506.377.654-.805 1.38-2.525.671-3.79 1.026-.2.223-.59.452-.574.662.1 1.324 1.92 3.364-2.015 2.911-.06-.007-.413.67-.337.982.885 3.66-1.5 4.771-5.479 4.479-1.914-.14-3.99-.273-5.625-.968-1.132-.481.249-1.834.134-2.815-.061-.526.14-1.16-.664-1.41-.726-.225-1.31.15-1.832.502-.992.67-1.017 1.597-.914 2.521.11.991.027 1.888-1.47 2.095-1.8.25-2.587 1.318-3.396 2.459-1.759 2.478-3.948 4.312-8.006 4.13-1.362-.062-3.113-.231-4.586.674.426.43.661.741.982.979 2.457 1.829 3.082 4.453 1.292 6.247-2.051 2.056-3.955.206-5.696-.42-4.528-1.632-4.468-1.715-5.912 2.108-.23.607-.618 1.177-.953 1.756-1.803 3.112-1.677 3.977 2.81 7.15 1.99 1.407 4.895.983 7.11.05 1.14-.48 3.642-.33 3.194-2.244-.375-1.606.884-2.165 2.219-2.661 1.541-.574 2.657-1.791 3.824-2.315 2.493-1.118 5.716-1.193 8.652-1.647.179-.028.581.33.673.562 1.14 2.868 4.248 4.169 6.997 5.766.924.538 1.907 1.187 1.686 2.218-.268 1.247-1.674.953-2.749 1.088-.688.087-1.659-.25-1.916.825 1.3.18 1.977 1.709 3.51 1.198 3.076-1.024 2.929-3.608 3.614-5.651.41-1.222-1.724-1.458-2.622-2.211-.288-.243-.942-.214-1.208-.462-1.623-1.514-4.172-2.727-2.97-6.046 1.861 3.145 5.015 4.126 7.548 5.738 2.711 1.724 2.835 4.886 5.082 6.989.952.891 1.7 2.478 3.294 1.333 1.13-.811 2.386-2.36.546-3.791-2.161-1.68-.24-2.16 1.262-2.556 1.477-.39 3.14-.27 4.447-1.171.499-.345 1.325-.451.836-1.19-2.028-3.068.611-4.775 3.055-6.379 2.918-1.914 3.315-1.757 4.37 1.195.301.842.816 1.346 1.903 1.123.824-.17 2.062-.352 1.669-1.347-1.354-3.423 1.766-2.705 3.948-2.881.194-.432.587-.485 1.07-.358 5.15-2.012 6.865-5.67 7.57-9.927.428-2.583.833-5.14 1.923-7.697 1.85-4.341 5.37-8.28 5.278-13.124-3.364-.472-6.734-1.58-9.983.433z"/>
        <path stroke="#A381C0" stroke-width="2" d="M216.832 45.293c2.25.004 4.37-.133 4.833-2.491.132-.673.972-.988 1.891-.78.696.156.976.713.608 1.053-1.83 1.687-.23 4.326-2.947 5.712 1.65.717 3.028.359 4.347.34 3.743-.055 4.473-1.18 3.553-4.19-.653-2.137-2.366-4.106-1.505-6.6.22-.635.252-2.957-2.2-2.71-1.921.193-2.782 1.462-2.523 3.059.071.44.31.863.581 1.585-1.44-.15-2.41.155-3.365.23-3.127.243-3.265 2.407-4.298 3.968-.307.465.432.823 1.025.824z"/>
        <path stroke="#F9CB00" stroke-width="2" d="M474.375 167.505c-3.46-2.463-3.733-6.923-8.436-8.571-.155-.055-.282-.318-.277-.482.102-4.233-2.805-7.505-5.33-10.906-.445-.598-.406-1.622-1.56-1.582-1.353.048-1.346 1.08-1.463 1.872-.336 2.268-.518 4.554-.951 6.809-.219 1.138-.57 2.578-2.708 2.134-2.788-.578-5.245-1.747-7.425-3.254-.94-.65-.657-1.424-.191-2.245 1.97-3.469 1.949-3.476-2.71-3.895-.113-.01-.223-.037-.335-.05-3.738-.43-6.85.902-8.19 3.778-.56 1.2-1.111 1.496-2.403.81-2.142-1.137-4.207-.776-5.246.904-2.059 3.329-7.698 4.357-8.237 8.661-.128 1.016-1.769 1.608-2.984 2.124-1.809.77-3.609 1.565-5.48 2.226-2.705.956-4.31 2.367-3.637 4.655-.222 3.325.981 5.986 3.48 8.325 2.405 2.249 4.3 4.695 4.49 7.817.129 2.14 2.254 3.159 4.255 2.45 3.48-1.23 7.471-1.944 10.202-4.186 6.474-5.314 10.803-5.383 16.897.05.666.594 1.402 1.575 2.491.932 3.736-2.209 4.48.929 5.538 2.256 1.312 1.646 1.525 4.099 4.48 4.362 2.46.218 5.113.038 7.49-.506 1.488-.34 3.728-.27 4.408-1.76 2.118-4.634 5.739-8.774 7.002-13.671.883-3.424.24-6.63-3.17-9.057zM495.192 187.632c-1.69.037-2.307-.896-3.166-1.752-.92-.919-1.99-1.75-3.067-2.554-.48-.358-1.167-.699-1.83-.26-.686.454-.346 1.025.053 1.464.733.809 1.437 1.677 2.367 2.32 2.445 1.692 1.343 3.906-.128 4.79-3.881 2.332-4.1 6.28-7.024 8.946-.673.614-.36 1.426.422 1.958.95.645 1.961.442 2.766-.173.647-.495 1.123-1.134 1.667-1.715 1.738-1.856 3.04-4.247 5.315-5.437 2.81-1.468 3.484-3.42 4.166-5.452.072-1.13.095-2.169-1.54-2.135z"/>
        <path stroke="#D90051" stroke-width="2" d="M460.05 133.225a31388.97 31388.97 0 0 1-7.01 4.496c-1.267-2.448-3.425-3.667-6.843-3.619-2.045.028-5.36-2.948-5.475-4.579-.081-1.152.536-2.002 1.995-2.18 1.484-.18 2.59.253 3.142 1.53 1.29 2.982 1.34 2.977 4.646 1.172.6-.327 1.236-.573 1.888-.284 1.928.856 4.1.995 6.162 1.46 1.23.277 1.992.855 1.495 2.004z"/>
        <path stroke="#00C8CC" stroke-width="2" d="M104.276 71h20.483"/>
        <path fill="#00C8CC" d="M124.759 71.06a4.5 4.5 0 1 0 9 0 4.5 4.5 0 0 0-9 0"/>
        <path stroke="#FA8300" stroke-width="2" d="M246.29 169h-20.483"/>
        <path fill="#FA8300" d="M221.748 164.879a4.5 4.5 0 1 0 0 9 4.5 4.5 0 0 0 0-9z"/>
        <path stroke="#A381C0" stroke-width="2" d="M289 23.93V8"/>
        <path fill="#A381C0" d="M289.5 9a4.5 4.5 0 1 0 0-9 4.5 4.5 0 0 0 0 9"/>
        <path stroke="#D90051" stroke-width="2" d="M433.023 73h19.8"/>
        <path fill="#D90051" d="M452.823 72.982a4.5 4.5 0 1 0 9 0 4.5 4.5 0 0 0-9 0"/>
        <path stroke="#F9CB00" stroke-width="2" d="M406.85 168.9h-19.8"/>
        <path fill="#F9CB00" d="M388.491 169.555a4.5 4.5 0 1 0-9 0 4.5 4.5 0 0 0 9 0"/>
    </g>
</svg>
